<mxfile host="app.diagrams.net" modified="2020-08-28T11:49:11.884Z" agent="5.0 (Macintosh; Intel Mac OS X 10_15_6) AppleWebKit/605.1.15 (KHTML, like Gecko) Version/13.1.2 Safari/605.1.15" etag="3R-6NsJTHp1Ycn1orh09" version="13.6.5" type="github">
  <diagram id="SJbyMqCpJIm8tJlxLE9R" name="Page-1">
    <mxGraphModel dx="946" dy="662" grid="1" gridSize="10" guides="1" tooltips="1" connect="1" arrows="1" fold="1" page="1" pageScale="1" pageWidth="827" pageHeight="1169" math="0" shadow="0">
      <root>
        <mxCell id="0" />
        <mxCell id="1" parent="0" />
        <mxCell id="Hl33DLE_ghQ-5j9jxuEX-1" value="" style="rounded=1;whiteSpace=wrap;html=1;direction=west;arcSize=4;fillColor=#f5f5f5;strokeColor=#666666;fontColor=#333333;" vertex="1" parent="1">
          <mxGeometry x="60" y="80" width="840" height="720" as="geometry" />
        </mxCell>
        <mxCell id="Hl33DLE_ghQ-5j9jxuEX-4" value="&lt;font style=&quot;font-size: 22px&quot;&gt;Covid-19 Tracker&lt;/font&gt;" style="text;html=1;strokeColor=none;fillColor=none;align=center;verticalAlign=middle;whiteSpace=wrap;rounded=0;fontSize=22;" vertex="1" parent="1">
          <mxGeometry x="110" y="120" width="190" height="30" as="geometry" />
        </mxCell>
        <mxCell id="Hl33DLE_ghQ-5j9jxuEX-6" value="&lt;font style=&quot;font-size: 22px&quot;&gt;Worldwide&lt;/font&gt;" style="rounded=1;whiteSpace=wrap;html=1;" vertex="1" parent="1">
          <mxGeometry x="330" y="122.5" width="120" height="25" as="geometry" />
        </mxCell>
        <mxCell id="Hl33DLE_ghQ-5j9jxuEX-7" value="" style="rounded=1;whiteSpace=wrap;html=1;" vertex="1" parent="1">
          <mxGeometry x="120" y="180" width="130" height="80" as="geometry" />
        </mxCell>
        <mxCell id="Hl33DLE_ghQ-5j9jxuEX-8" value="&lt;font style=&quot;font-size: 10px&quot;&gt;Coronvirus Cases&lt;/font&gt;" style="text;html=1;strokeColor=none;fillColor=none;align=left;verticalAlign=middle;whiteSpace=wrap;rounded=0;" vertex="1" parent="1">
          <mxGeometry x="130" y="190" width="110" height="20" as="geometry" />
        </mxCell>
        <mxCell id="Hl33DLE_ghQ-5j9jxuEX-9" value="&lt;font style=&quot;font-size: 10px&quot;&gt;+2000&lt;/font&gt;" style="text;html=1;strokeColor=none;fillColor=none;align=left;verticalAlign=middle;whiteSpace=wrap;rounded=0;" vertex="1" parent="1">
          <mxGeometry x="130" y="210" width="70" height="20" as="geometry" />
        </mxCell>
        <mxCell id="Hl33DLE_ghQ-5j9jxuEX-10" value="&lt;font style=&quot;font-size: 10px&quot;&gt;1.2 M Total&lt;br&gt;&lt;/font&gt;" style="text;html=1;strokeColor=none;fillColor=none;align=left;verticalAlign=middle;whiteSpace=wrap;rounded=0;" vertex="1" parent="1">
          <mxGeometry x="130" y="230" width="110" height="20" as="geometry" />
        </mxCell>
        <mxCell id="Hl33DLE_ghQ-5j9jxuEX-11" value="" style="rounded=1;whiteSpace=wrap;html=1;" vertex="1" parent="1">
          <mxGeometry x="270" y="180" width="130" height="80" as="geometry" />
        </mxCell>
        <mxCell id="Hl33DLE_ghQ-5j9jxuEX-12" value="&lt;font style=&quot;font-size: 10px&quot;&gt;Recovered&lt;/font&gt;" style="text;html=1;strokeColor=none;fillColor=none;align=left;verticalAlign=middle;whiteSpace=wrap;rounded=0;" vertex="1" parent="1">
          <mxGeometry x="280" y="190" width="110" height="20" as="geometry" />
        </mxCell>
        <mxCell id="Hl33DLE_ghQ-5j9jxuEX-13" value="&lt;font style=&quot;font-size: 10px&quot;&gt;+2000&lt;/font&gt;" style="text;html=1;strokeColor=none;fillColor=none;align=left;verticalAlign=middle;whiteSpace=wrap;rounded=0;" vertex="1" parent="1">
          <mxGeometry x="280" y="210" width="70" height="20" as="geometry" />
        </mxCell>
        <mxCell id="Hl33DLE_ghQ-5j9jxuEX-14" value="&lt;font style=&quot;font-size: 10px&quot;&gt;1.2 M Total&lt;br&gt;&lt;/font&gt;" style="text;html=1;strokeColor=none;fillColor=none;align=left;verticalAlign=middle;whiteSpace=wrap;rounded=0;" vertex="1" parent="1">
          <mxGeometry x="280" y="230" width="110" height="20" as="geometry" />
        </mxCell>
        <mxCell id="Hl33DLE_ghQ-5j9jxuEX-20" value="" style="rounded=1;whiteSpace=wrap;html=1;" vertex="1" parent="1">
          <mxGeometry x="420" y="180" width="130" height="80" as="geometry" />
        </mxCell>
        <mxCell id="Hl33DLE_ghQ-5j9jxuEX-21" value="&lt;font style=&quot;font-size: 10px&quot;&gt;Deaths&lt;br&gt;&lt;/font&gt;" style="text;html=1;strokeColor=none;fillColor=none;align=left;verticalAlign=middle;whiteSpace=wrap;rounded=0;" vertex="1" parent="1">
          <mxGeometry x="430" y="190" width="110" height="20" as="geometry" />
        </mxCell>
        <mxCell id="Hl33DLE_ghQ-5j9jxuEX-22" value="&lt;font style=&quot;font-size: 10px&quot;&gt;+2000&lt;/font&gt;" style="text;html=1;strokeColor=none;fillColor=none;align=left;verticalAlign=middle;whiteSpace=wrap;rounded=0;" vertex="1" parent="1">
          <mxGeometry x="430" y="210" width="70" height="20" as="geometry" />
        </mxCell>
        <mxCell id="Hl33DLE_ghQ-5j9jxuEX-23" value="&lt;font style=&quot;font-size: 10px&quot;&gt;1.2 M Total&lt;br&gt;&lt;/font&gt;" style="text;html=1;strokeColor=none;fillColor=none;align=left;verticalAlign=middle;whiteSpace=wrap;rounded=0;" vertex="1" parent="1">
          <mxGeometry x="430" y="230" width="110" height="20" as="geometry" />
        </mxCell>
        <mxCell id="Hl33DLE_ghQ-5j9jxuEX-25" value="" style="rounded=1;whiteSpace=wrap;html=1;arcSize=3;" vertex="1" parent="1">
          <mxGeometry x="125" y="290" width="425" height="410" as="geometry" />
        </mxCell>
        <mxCell id="Hl33DLE_ghQ-5j9jxuEX-26" value="" style="verticalLabelPosition=bottom;shadow=0;dashed=0;align=center;html=1;verticalAlign=top;strokeWidth=1;shape=mxgraph.mockup.misc.map;" vertex="1" parent="1">
          <mxGeometry x="150" y="320" width="370" height="350" as="geometry" />
        </mxCell>
        <mxCell id="Hl33DLE_ghQ-5j9jxuEX-27" value="" style="rounded=1;whiteSpace=wrap;html=1;arcSize=5;" vertex="1" parent="1">
          <mxGeometry x="580" y="120" width="210" height="580" as="geometry" />
        </mxCell>
        <mxCell id="Hl33DLE_ghQ-5j9jxuEX-28" value="Live Cases by Country" style="text;html=1;strokeColor=none;fillColor=none;align=left;verticalAlign=middle;whiteSpace=wrap;rounded=0;" vertex="1" parent="1">
          <mxGeometry x="590" y="140" width="160" height="20" as="geometry" />
        </mxCell>
        <mxCell id="Hl33DLE_ghQ-5j9jxuEX-29" value="Worldwide New Cases" style="text;html=1;strokeColor=none;fillColor=none;align=left;verticalAlign=middle;whiteSpace=wrap;rounded=0;" vertex="1" parent="1">
          <mxGeometry x="590" y="480" width="160" height="20" as="geometry" />
        </mxCell>
        <mxCell id="Hl33DLE_ghQ-5j9jxuEX-46" value="" style="fillColor=#10739E;strokeColor=none;" vertex="1" parent="1">
          <mxGeometry x="600" y="560" width="30" height="100" as="geometry" />
        </mxCell>
        <mxCell id="Hl33DLE_ghQ-5j9jxuEX-47" value="" style="shape=mxgraph.arrows2.arrow;dy=0.4;dx=16;notch=0;direction=north;fillColor=#1699D3;strokeColor=none;" vertex="1" parent="Hl33DLE_ghQ-5j9jxuEX-46">
          <mxGeometry x="3" y="30" width="24" height="70" as="geometry" />
        </mxCell>
        <mxCell id="Hl33DLE_ghQ-5j9jxuEX-48" value="Label" style="text;html=1;align=center;verticalAlign=middle;whiteSpace=wrap;fontColor=#FFFFFF;fontSize=10;" vertex="1" parent="Hl33DLE_ghQ-5j9jxuEX-46">
          <mxGeometry width="30" height="20" as="geometry" />
        </mxCell>
        <mxCell id="Hl33DLE_ghQ-5j9jxuEX-49" value="" style="fillColor=#F2931E;strokeColor=none;" vertex="1" parent="1">
          <mxGeometry x="635" y="540" width="30" height="120" as="geometry" />
        </mxCell>
        <mxCell id="Hl33DLE_ghQ-5j9jxuEX-50" value="" style="shape=mxgraph.arrows2.arrow;dy=0.4;dx=16;notch=0;direction=south;fillColor=#F5AB50;strokeColor=none;" vertex="1" parent="Hl33DLE_ghQ-5j9jxuEX-49">
          <mxGeometry x="3" width="24" height="80" as="geometry" />
        </mxCell>
        <mxCell id="Hl33DLE_ghQ-5j9jxuEX-51" value="Label" style="text;html=1;align=center;verticalAlign=middle;whiteSpace=wrap;fontColor=#FFFFFF;fontSize=10;" vertex="1" parent="Hl33DLE_ghQ-5j9jxuEX-49">
          <mxGeometry width="30" height="20" as="geometry" />
        </mxCell>
        <mxCell id="Hl33DLE_ghQ-5j9jxuEX-52" value="" style="fillColor=#AE4132;strokeColor=none;" vertex="1" parent="1">
          <mxGeometry x="670" y="530" width="30" height="130" as="geometry" />
        </mxCell>
        <mxCell id="Hl33DLE_ghQ-5j9jxuEX-53" value="" style="shape=mxgraph.arrows2.arrow;dy=0.4;dx=16;notch=0;direction=north;fillColor=#E85642;strokeColor=none;" vertex="1" parent="Hl33DLE_ghQ-5j9jxuEX-52">
          <mxGeometry x="3" y="80" width="24" height="50" as="geometry" />
        </mxCell>
        <mxCell id="Hl33DLE_ghQ-5j9jxuEX-54" value="Label" style="text;html=1;align=center;verticalAlign=middle;whiteSpace=wrap;fontColor=#FFFFFF;fontSize=10;" vertex="1" parent="Hl33DLE_ghQ-5j9jxuEX-52">
          <mxGeometry width="30" height="20" as="geometry" />
        </mxCell>
        <mxCell id="Hl33DLE_ghQ-5j9jxuEX-55" value="" style="fillColor=#12AAB5;strokeColor=none;" vertex="1" parent="1">
          <mxGeometry x="705" y="580" width="30" height="80" as="geometry" />
        </mxCell>
        <mxCell id="Hl33DLE_ghQ-5j9jxuEX-56" value="" style="shape=mxgraph.arrows2.arrow;dy=0.4;dx=16;notch=0;direction=south;fillColor=#64BBE2;strokeColor=none;" vertex="1" parent="Hl33DLE_ghQ-5j9jxuEX-55">
          <mxGeometry x="3" width="24" height="30" as="geometry" />
        </mxCell>
        <mxCell id="Hl33DLE_ghQ-5j9jxuEX-57" value="Label" style="text;html=1;align=center;verticalAlign=middle;whiteSpace=wrap;fontColor=#FFFFFF;fontSize=10;" vertex="1" parent="Hl33DLE_ghQ-5j9jxuEX-55">
          <mxGeometry width="30" height="20" as="geometry" />
        </mxCell>
        <mxCell id="Hl33DLE_ghQ-5j9jxuEX-58" value="" style="fillColor=#23445D;strokeColor=none;" vertex="1" parent="1">
          <mxGeometry x="740" y="590" width="30" height="70" as="geometry" />
        </mxCell>
        <mxCell id="Hl33DLE_ghQ-5j9jxuEX-59" value="" style="shape=mxgraph.arrows2.arrow;dy=0.4;dx=16;notch=0;direction=north;fillColor=#2F5B7C;strokeColor=none;" vertex="1" parent="Hl33DLE_ghQ-5j9jxuEX-58">
          <mxGeometry x="3" y="10" width="24" height="60" as="geometry" />
        </mxCell>
        <mxCell id="Hl33DLE_ghQ-5j9jxuEX-60" value="Label" style="text;html=1;align=center;verticalAlign=middle;whiteSpace=wrap;fontColor=#FFFFFF;fontSize=10;" vertex="1" parent="Hl33DLE_ghQ-5j9jxuEX-58">
          <mxGeometry width="30" height="20" as="geometry" />
        </mxCell>
        <mxCell id="Hl33DLE_ghQ-5j9jxuEX-61" value="" style="shape=table;html=1;whiteSpace=wrap;startSize=0;container=1;collapsible=0;childLayout=tableLayout;" vertex="1" parent="1">
          <mxGeometry x="595" y="180" width="180" height="190" as="geometry" />
        </mxCell>
        <mxCell id="Hl33DLE_ghQ-5j9jxuEX-62" value="" style="shape=partialRectangle;html=1;whiteSpace=wrap;collapsible=0;dropTarget=0;pointerEvents=0;fillColor=none;top=0;left=0;bottom=0;right=0;points=[[0,0.5],[1,0.5]];portConstraint=eastwest;" vertex="1" parent="Hl33DLE_ghQ-5j9jxuEX-61">
          <mxGeometry width="180" height="63" as="geometry" />
        </mxCell>
        <mxCell id="Hl33DLE_ghQ-5j9jxuEX-63" value="" style="shape=partialRectangle;html=1;whiteSpace=wrap;connectable=0;fillColor=none;top=0;left=0;bottom=0;right=0;overflow=hidden;" vertex="1" parent="Hl33DLE_ghQ-5j9jxuEX-62">
          <mxGeometry width="60" height="63" as="geometry" />
        </mxCell>
        <mxCell id="Hl33DLE_ghQ-5j9jxuEX-64" value="" style="shape=partialRectangle;html=1;whiteSpace=wrap;connectable=0;fillColor=none;top=0;left=0;bottom=0;right=0;overflow=hidden;" vertex="1" parent="Hl33DLE_ghQ-5j9jxuEX-62">
          <mxGeometry x="60" width="60" height="63" as="geometry" />
        </mxCell>
        <mxCell id="Hl33DLE_ghQ-5j9jxuEX-65" value="" style="shape=partialRectangle;html=1;whiteSpace=wrap;connectable=0;fillColor=none;top=0;left=0;bottom=0;right=0;overflow=hidden;" vertex="1" parent="Hl33DLE_ghQ-5j9jxuEX-62">
          <mxGeometry x="120" width="60" height="63" as="geometry" />
        </mxCell>
        <mxCell id="Hl33DLE_ghQ-5j9jxuEX-66" value="" style="shape=partialRectangle;html=1;whiteSpace=wrap;collapsible=0;dropTarget=0;pointerEvents=0;fillColor=none;top=0;left=0;bottom=0;right=0;points=[[0,0.5],[1,0.5]];portConstraint=eastwest;" vertex="1" parent="Hl33DLE_ghQ-5j9jxuEX-61">
          <mxGeometry y="63" width="180" height="64" as="geometry" />
        </mxCell>
        <mxCell id="Hl33DLE_ghQ-5j9jxuEX-67" value="" style="shape=partialRectangle;html=1;whiteSpace=wrap;connectable=0;fillColor=none;top=0;left=0;bottom=0;right=0;overflow=hidden;" vertex="1" parent="Hl33DLE_ghQ-5j9jxuEX-66">
          <mxGeometry width="60" height="64" as="geometry" />
        </mxCell>
        <mxCell id="Hl33DLE_ghQ-5j9jxuEX-68" value="" style="shape=partialRectangle;html=1;whiteSpace=wrap;connectable=0;fillColor=none;top=0;left=0;bottom=0;right=0;overflow=hidden;" vertex="1" parent="Hl33DLE_ghQ-5j9jxuEX-66">
          <mxGeometry x="60" width="60" height="64" as="geometry" />
        </mxCell>
        <mxCell id="Hl33DLE_ghQ-5j9jxuEX-69" value="" style="shape=partialRectangle;html=1;whiteSpace=wrap;connectable=0;fillColor=none;top=0;left=0;bottom=0;right=0;overflow=hidden;" vertex="1" parent="Hl33DLE_ghQ-5j9jxuEX-66">
          <mxGeometry x="120" width="60" height="64" as="geometry" />
        </mxCell>
        <mxCell id="Hl33DLE_ghQ-5j9jxuEX-70" value="" style="shape=partialRectangle;html=1;whiteSpace=wrap;collapsible=0;dropTarget=0;pointerEvents=0;fillColor=none;top=0;left=0;bottom=0;right=0;points=[[0,0.5],[1,0.5]];portConstraint=eastwest;" vertex="1" parent="Hl33DLE_ghQ-5j9jxuEX-61">
          <mxGeometry y="127" width="180" height="63" as="geometry" />
        </mxCell>
        <mxCell id="Hl33DLE_ghQ-5j9jxuEX-71" value="" style="shape=partialRectangle;html=1;whiteSpace=wrap;connectable=0;fillColor=none;top=0;left=0;bottom=0;right=0;overflow=hidden;" vertex="1" parent="Hl33DLE_ghQ-5j9jxuEX-70">
          <mxGeometry width="60" height="63" as="geometry" />
        </mxCell>
        <mxCell id="Hl33DLE_ghQ-5j9jxuEX-72" value="" style="shape=partialRectangle;html=1;whiteSpace=wrap;connectable=0;fillColor=none;top=0;left=0;bottom=0;right=0;overflow=hidden;" vertex="1" parent="Hl33DLE_ghQ-5j9jxuEX-70">
          <mxGeometry x="60" width="60" height="63" as="geometry" />
        </mxCell>
        <mxCell id="Hl33DLE_ghQ-5j9jxuEX-73" value="" style="shape=partialRectangle;html=1;whiteSpace=wrap;connectable=0;fillColor=none;top=0;left=0;bottom=0;right=0;overflow=hidden;" vertex="1" parent="Hl33DLE_ghQ-5j9jxuEX-70">
          <mxGeometry x="120" width="60" height="63" as="geometry" />
        </mxCell>
      </root>
    </mxGraphModel>
  </diagram>
</mxfile>
